<?xml version="1.0" encoding="UTF-8"?>
<svg xmlns="http://www.w3.org/2000/svg" viewBox="0 0 16 16" width="16" height="16">
  <defs>
    <!-- Mask for the cutout circles -->
    <mask id="circleMask">
      <rect width="16" height="16" fill="white"/>
      <circle cx="3.75" cy="3.25" r="1" fill="black"/>
      <circle cx="3.75" cy="12.75" r="1" fill="black"/>
      <circle cx="12.75" cy="12.75" r="1" fill="black"/>
    </mask>
  </defs>
  
  <!-- Background rectangle in the same color as icon paths to create proper masking -->
  <rect width="16" height="16" fill="transparent"/>
  
  <!-- Left half (red) and right half (green) with the mask applied -->
  <g mask="url(#circleMask)">
    <!-- Red branch -->
    <path d="M1.5 3.25a2.25 2.25 0 1 1 3 2.122v5.256a2.251 2.251 0 1 1-1.5 0V5.372A2.25 2.25 0 0 1 1.5 3.25Z" fill="#cf222e"/>
    
    <!-- Green branch -->
    <path d="M7.177 3.073L9.573.677A.25.25 0 0 1 10 .854V2.5h1A2.5 2.5 0 0 1 13.5 5v5.628a2.251 2.251 0 1 1-1.5 0V5a1 1 0 0 0-1-1h-1v1.646a.25.25 0 0 1-.427.177L7.177 3.427a.25.25 0 0 1 0-.354Z" fill="#2da44e"/>
  </g>
</svg>